<?xml version="1.0" standalone="no"?>
<!DOCTYPE svg PUBLIC "-//W3C//DTD SVG 20010904//EN"
 "http://www.w3.org/TR/2001/REC-SVG-20010904/DTD/svg10.dtd">
<svg version="1.0" xmlns="http://www.w3.org/2000/svg"
 width="1760.000000pt" height="601.000000pt" viewBox="0 0 1760.000000 601.000000"
 preserveAspectRatio="xMidYMid meet">

<g transform="translate(0.000000,601.000000) scale(0.100000,-0.100000)"
fill="#000000" stroke="none">
<path d="M4240 5285 c0 -137 3 -176 13 -172 9 3 12 46 12 172 0 126 -3 169
-12 173 -10 3 -13 -36 -13 -173z"/>
<path d="M4130 5372 c0 -111 14 -262 23 -259 18 6 4 307 -14 307 -5 0 -9 -22
-9 -48z"/>
<path d="M4356 5399 c-3 -13 -7 -84 -10 -157 -3 -100 -2 -132 7 -129 15 5 31
287 17 301 -5 5 -11 0 -14 -15z"/>
<path d="M4034 5218 c6 -95 16 -132 29 -111 9 15 -15 213 -26 213 -6 0 -8 -37
-3 -102z"/>
<path d="M4456 5273 c-16 -135 -17 -173 -8 -173 13 0 19 28 27 133 5 57 4 87
-3 87 -6 0 -13 -21 -16 -47z"/>
<path d="M3360 5250 c0 -15 100 -264 111 -274 22 -23 16 7 -20 100 -61 157
-73 184 -82 184 -5 0 -9 -4 -9 -10z"/>
<path d="M3240 5241 c0 -10 48 -122 104 -244 37 -80 71 -102 37 -24 -38 85
-99 223 -111 250 -13 26 -30 37 -30 18z"/>
<path d="M5087 5163 c-66 -160 -77 -192 -67 -198 12 -7 23 14 75 153 48 124
50 132 36 132 -4 0 -24 -39 -44 -87z"/>
<path d="M5182 5115 c-66 -144 -80 -185 -65 -185 11 0 143 286 143 308 0 33
-21 1 -78 -123z"/>
<path d="M3935 5163 c8 -63 11 -73 26 -73 6 0 8 18 4 48 -9 65 -15 82 -27 82
-7 0 -8 -20 -3 -57z"/>
<path d="M4545 5164 c-6 -52 -2 -75 11 -62 3 3 8 31 11 62 8 75 -12 75 -22 0z"/>
<path d="M3495 5188 c16 -61 64 -183 74 -186 15 -5 14 0 -22 107 -18 52 -38
97 -45 99 -9 3 -11 -3 -7 -20z"/>
<path d="M4985 5198 c-10 -27 -65 -192 -65 -195 0 -2 6 -3 13 -3 10 0 77 176
77 203 0 12 -20 8 -25 -5z"/>
<path d="M3156 5161 c-6 -9 120 -267 135 -276 22 -14 5 34 -56 155 -36 72 -67
130 -69 130 -3 0 -7 -4 -10 -9z"/>
<path d="M3840 5138 c0 -35 15 -67 25 -56 10 9 -5 88 -16 88 -5 0 -9 -15 -9
-32z"/>
<path d="M4644 5125 c-3 -25 -4 -49 0 -52 8 -8 26 43 26 73 0 41 -18 26 -26
-21z"/>
<path d="M5266 5039 c-63 -126 -75 -159 -58 -159 14 0 144 272 134 282 -6 6
-34 -40 -76 -123z"/>
<path d="M3625 5129 c4 -19 14 -50 23 -69 12 -28 16 -31 19 -15 5 29 -20 108
-36 113 -10 3 -11 -3 -6 -29z"/>
<path d="M3730 5136 c0 -34 17 -76 31 -76 10 0 7 30 -7 83 -8 25 -24 21 -24
-7z"/>
<path d="M4847 5107 c-20 -63 -22 -90 -5 -85 13 5 49 123 40 132 -12 13 -19 4
-35 -47z"/>
<path d="M4757 5143 c-3 -5 -8 -25 -12 -46 -8 -44 11 -53 21 -9 3 15 7 32 9
39 5 14 -11 27 -18 16z"/>
<path d="M3100 5023 c1 -16 97 -177 108 -181 21 -7 13 16 -38 103 -44 74 -71
104 -70 78z"/>
<path d="M5367 4993 c-61 -99 -88 -153 -75 -153 7 0 20 13 29 28 71 126 89
162 80 162 -6 0 -21 -17 -34 -37z"/>
<path d="M4115 4983 c-104 -7 -279 -35 -370 -58 -256 -67 -542 -209 -740 -368
-77 -62 -240 -224 -304 -302 -372 -451 -525 -1067 -411 -1655 96 -496 401
-959 825 -1252 619 -428 1440 -471 2096 -108 424 233 752 616 914 1064 86 239
119 429 119 681 0 414 -108 772 -335 1115 -391 589 -1087 931 -1794 883z m405
-39 c429 -62 794 -242 1104 -543 328 -320 535 -739 587 -1190 14 -130 7 -434
-14 -546 -92 -489 -332 -902 -702 -1205 -274 -224 -633 -379 -990 -426 -148
-20 -454 -14 -589 10 -246 45 -505 144 -705 269 -480 299 -791 759 -903 1333
-20 104 -23 148 -23 354 1 217 3 245 28 365 37 173 59 247 119 390 166 398
460 733 833 948 183 106 450 201 672 238 174 29 393 30 583 3z"/>
<path d="M4240 4384 c-362 -45 -628 -222 -776 -515 -60 -121 -85 -216 -88
-342 -2 -76 -7 -111 -21 -137 -39 -76 -102 -158 -168 -220 -80 -76 -101 -110
-92 -151 8 -38 66 -85 130 -105 77 -25 82 -33 56 -94 -12 -28 -19 -59 -16 -70
6 -18 70 -50 100 -50 24 0 17 -13 -18 -35 -41 -26 -50 -77 -17 -95 36 -19 42
-54 25 -137 -35 -167 35 -267 192 -279 67 -5 74 -3 648 191 319 108 627 213
685 232 119 40 181 69 260 123 266 180 416 536 354 837 -40 196 -134 365 -282
512 -166 164 -359 266 -601 316 -74 15 -305 27 -371 19z m375 -68 c277 -61
501 -202 665 -418 69 -91 129 -211 156 -308 25 -91 25 -300 1 -390 -47 -169
-161 -340 -294 -437 -117 -87 -54 -63 -1145 -433 -378 -128 -408 -136 -481
-120 -43 9 -63 19 -86 45 -41 47 -47 91 -26 176 19 79 15 109 -21 156 l-25 32
49 25 c26 13 74 32 106 41 49 14 57 20 54 38 -3 21 -9 22 -93 24 -111 2 -155
10 -155 27 0 8 7 30 15 50 28 67 4 104 -90 136 -62 21 -105 53 -105 78 0 8 42
58 93 111 54 57 113 132 142 180 49 83 49 84 48 164 -7 308 186 607 482 748
101 48 178 72 283 89 82 13 344 4 427 -14z"/>
<path d="M4552 4063 c-33 -4 -33 -5 -27 -43 12 -69 -37 -130 -103 -130 -25 0
-43 9 -69 35 -19 19 -41 35 -47 35 -13 0 -166 -152 -166 -165 0 -3 13 -19 29
-35 33 -34 41 -62 29 -108 -11 -42 -60 -74 -108 -70 -29 2 -35 -1 -41 -22 -9
-33 -11 -159 -3 -200 7 -30 9 -32 42 -26 113 18 175 -111 87 -181 -19 -16 -35
-31 -35 -35 0 -12 105 -121 143 -149 l39 -28 29 33 c34 39 72 49 115 31 43
-18 64 -51 64 -102 0 -23 3 -44 8 -46 19 -12 105 -11 109 1 3 7 -6 12 -24 13
-51 1 -67 13 -69 52 -6 89 -104 144 -184 102 -16 -8 -33 -23 -38 -32 -9 -16
-12 -15 -38 2 -16 10 -48 39 -71 64 -42 45 -54 71 -33 71 18 0 50 64 50 100 0
71 -50 122 -122 126 l-43 2 0 98 0 99 40 6 c56 7 80 23 99 63 23 48 20 87 -9
130 -14 20 -25 39 -25 43 0 12 62 82 96 108 33 25 38 26 46 11 14 -24 62 -46
103 -46 74 0 125 51 125 123 0 39 12 47 67 47 23 0 33 4 31 13 -5 13 -42 17
-96 10z"/>
<path d="M4753 4054 c-17 -9 -39 -31 -47 -49 -21 -43 -21 -153 -1 -203 14 -34
14 -41 0 -68 -12 -23 -15 -67 -15 -209 0 -162 2 -183 20 -212 20 -33 20 -33
-1 -72 -18 -36 -20 -54 -17 -186 l3 -147 33 -29 c42 -37 97 -40 139 -6 21 18
37 23 68 20 51 -5 101 25 121 72 13 33 17 35 63 35 91 0 137 62 128 171 -4 53
-2 70 9 80 62 52 54 211 -15 273 -15 14 -17 22 -8 54 14 51 -18 124 -66 152
-33 20 -35 23 -39 89 -3 55 -9 75 -31 104 -33 43 -83 61 -143 52 -40 -6 -45
-4 -53 17 -23 61 -93 90 -148 62z m96 -31 c29 -25 44 -78 25 -94 -14 -11 -20
-39 -8 -39 4 0 22 14 41 30 104 92 245 -30 189 -164 -29 -70 -110 -102 -122
-48 -4 15 -13 37 -21 50 -11 18 -12 30 -4 54 6 17 11 40 11 50 0 33 -24 14
-33 -25 -12 -49 -58 -87 -104 -87 -27 0 -43 8 -69 34 -33 33 -34 35 -34 120 0
79 2 89 25 111 29 30 74 33 104 8z m98 -330 c3 -26 0 -50 -11 -71 -16 -31 -36
-43 -36 -22 0 11 -53 40 -75 40 -26 0 -17 -15 20 -33 41 -19 68 -66 63 -110
-2 -18 2 -33 7 -35 6 -1 12 21 15 50 8 80 39 132 91 147 23 7 52 23 66 37 32
32 49 30 90 -11 31 -31 34 -39 31 -82 -2 -37 -6 -47 -18 -44 -8 2 -36 5 -63 7
-36 1 -52 8 -66 25 -24 29 -39 18 -21 -15 8 -15 10 -38 6 -60 -4 -20 -3 -36 2
-36 14 0 32 23 32 41 0 38 86 28 139 -17 81 -68 63 -232 -31 -280 -37 -19 -72
-12 -104 23 l-24 25 20 26 c21 27 26 57 10 67 -5 3 -12 -5 -16 -19 -8 -32 -32
-54 -67 -58 -36 -4 -36 -22 0 -26 15 -2 45 -20 67 -39 37 -33 42 -35 92 -30
58 6 64 1 64 -56 0 -62 -55 -116 -118 -117 -27 0 -34 5 -42 28 -20 54 -36 76
-67 95 -22 13 -33 27 -33 42 0 34 -10 55 -27 55 -11 0 -13 -5 -7 -17 15 -34 8
-85 -14 -104 -12 -9 -22 -20 -22 -23 0 -13 28 -5 45 14 25 27 39 25 69 -11 40
-47 37 -110 -8 -155 -46 -46 -105 -45 -102 1 2 33 -17 32 -26 -2 -8 -33 -50
-73 -75 -73 -30 0 -71 31 -82 61 -15 42 -13 235 2 279 7 20 27 44 46 57 l35
23 31 -30 c17 -16 34 -30 38 -30 14 0 7 20 -14 41 -18 18 -20 29 -15 70 4 27
3 49 -2 49 -10 0 -32 -44 -32 -64 0 -12 -29 -26 -56 -26 -6 0 -17 12 -24 28
-15 32 -15 375 1 403 8 17 12 17 46 3 40 -17 88 -13 119 11 26 19 44 1 51 -52z"/>
<path d="M4587 3705 c-67 -17 -126 -63 -161 -126 -27 -46 -31 -64 -31 -124 1
-76 14 -110 67 -170 37 -43 90 -72 147 -81 59 -9 52 11 -8 26 -68 16 -124 60
-155 122 -71 142 10 304 167 333 35 7 47 18 30 28 -5 3 -30 -1 -56 -8z"/>
<path d="M3580 3389 c0 -22 10 -41 34 -65 29 -29 41 -34 80 -34 59 0 104 37
113 93 5 32 3 37 -15 37 -13 0 -23 -10 -30 -29 -6 -16 -23 -37 -37 -47 -24
-16 -30 -16 -54 -3 -14 8 -32 29 -40 47 -20 43 -51 44 -51 1z"/>
<path d="M2806 2948 c-56 -86 -84 -219 -67 -326 15 -98 76 -215 146 -281 52
-49 58 -52 72 -38 15 15 11 22 -44 81 -72 76 -108 148 -124 245 -15 90 -1 182
40 265 16 33 27 64 25 68 -10 15 -34 8 -48 -14z"/>
<path d="M2902 2843 c-23 -50 -27 -71 -27 -153 0 -84 3 -101 28 -150 30 -59
102 -140 124 -140 33 0 23 32 -25 85 -88 96 -110 227 -58 341 14 31 23 60 20
65 -14 23 -37 4 -62 -48z"/>
<path d="M3036 2808 c-25 -38 -36 -108 -25 -157 12 -54 24 -78 57 -113 51 -55
83 -20 34 37 -44 50 -59 105 -43 158 17 56 18 89 4 94 -6 2 -19 -6 -27 -19z"/>
<path d="M4397 2335 c-274 -95 -505 -179 -513 -185 -18 -16 -20 -210 -2 -228
9 -9 209 -12 839 -12 733 0 828 2 839 15 9 11 10 19 2 27 -9 9 -514 234 -584
260 l-28 10 0 128 c0 71 -3 135 -6 144 -3 9 -16 16 -28 15 -11 -1 -245 -79
-519 -174z m498 5 l0 -104 -47 -14 c-41 -11 -48 -17 -48 -39 0 -23 3 -25 28
-19 86 19 91 19 170 -15 42 -18 80 -38 84 -44 4 -5 8 -38 8 -71 0 -47 -4 -63
-16 -68 -25 -9 -944 -7 -944 2 0 5 39 19 88 32 164 43 154 39 146 63 -9 29 -6
28 -45 16 -85 -25 -372 -99 -385 -99 -11 0 -14 16 -14 68 l0 67 113 39 c61 22
276 97 477 167 201 70 370 126 375 125 6 -2 10 -46 10 -106z m382 -312 c68
-29 123 -56 123 -60 0 -9 -231 -11 -254 -2 -20 8 -23 114 -4 114 7 0 68 -24
135 -52z"/>
<path d="M4533 2245 c-17 -7 -39 -25 -49 -40 -22 -33 -22 -97 0 -131 32 -48
66 -54 301 -54 l215 0 0 25 0 25 -155 0 -154 0 6 48 c7 62 -15 108 -62 128
-42 17 -61 17 -102 -1z m95 -51 c18 -12 22 -24 20 -51 -8 -93 -128 -90 -128 2
0 56 59 83 108 49z"/>
<path d="M3056 4902 c-2 -4 9 -30 26 -57 37 -61 36 -60 45 -51 8 8 -47 116
-59 116 -4 0 -9 -4 -12 -8z"/>
<path d="M5407 4860 c-40 -59 -44 -70 -24 -70 15 0 70 96 64 113 -2 6 -20 -13
-40 -43z"/>
<path d="M2990 4821 c0 -18 39 -81 51 -81 17 0 8 25 -21 60 -16 19 -30 29 -30
21z"/>
<path d="M5474 4780 c-15 -22 -24 -44 -20 -48 9 -8 65 57 66 76 0 24 -20 12
-46 -28z"/>
<path d="M2900 4753 c0 -11 51 -73 61 -73 16 0 10 17 -17 49 -24 29 -44 40
-44 24z"/>
<path d="M5561 4723 c-17 -21 -31 -41 -31 -45 0 -15 16 -8 36 15 38 43 45 55
35 61 -5 3 -23 -11 -40 -31z"/>
<path d="M2800 4718 c0 -9 20 -38 45 -65 32 -35 44 -43 45 -30 0 10 -20 39
-45 65 -30 31 -45 41 -45 30z"/>
<path d="M2517 4713 c-3 -5 45 -60 107 -122 63 -62 116 -109 119 -104 4 6 -18
34 -47 64 -113 116 -174 171 -179 162z"/>
<path d="M2668 4715 c-4 -5 24 -43 63 -86 66 -73 89 -92 89 -71 0 16 -145 164
-152 157z"/>
<path d="M5650 4675 c-39 -50 -46 -65 -32 -65 15 0 92 92 86 102 -9 14 -18 8
-54 -37z"/>
<path d="M5752 4639 c-44 -48 -70 -84 -66 -91 9 -13 154 138 154 159 0 23 -14
12 -88 -68z"/>
<path d="M5855 4594 c-71 -69 -105 -108 -96 -111 8 -3 50 31 104 83 50 49 96
94 104 101 14 13 18 33 6 33 -5 0 -57 -48 -118 -106z"/>
<path d="M2410 4651 c0 -7 59 -64 231 -219 16 -14 29 -20 33 -13 6 9 -240 241
-256 241 -5 0 -8 -4 -8 -9z"/>
<path d="M5948 4538 c-67 -61 -125 -116 -127 -121 -10 -26 39 9 148 103 108
94 139 130 112 130 -5 0 -65 -50 -133 -112z"/>
<path d="M12982 4575 c-50 -13 -133 -27 -182 -31 -50 -3 -90 -8 -90 -11 0 -2
7 -20 16 -41 40 -96 44 -168 44 -887 0 -719 -5 -818 -44 -893 -9 -17 -16 -32
-16 -34 0 -2 101 -3 225 -3 196 0 224 2 219 15 -4 8 -17 40 -28 70 -21 54 -21
65 -21 948 0 787 -2 892 -15 891 -8 -1 -57 -12 -108 -24z"/>
<path d="M13520 4574 c-52 -13 -135 -27 -183 -30 -76 -6 -87 -9 -81 -23 55
-126 64 -249 64 -921 0 -639 -9 -788 -53 -890 l-15 -35 224 0 c195 0 223 2
218 15 -4 8 -16 42 -28 75 -20 59 -21 75 -24 870 -1 446 1 845 6 888 10 91 18
88 -128 51z"/>
<path d="M2370 4531 c0 -5 48 -49 108 -97 138 -112 129 -107 136 -96 6 10
-220 202 -236 202 -4 0 -8 -4 -8 -9z"/>
<path d="M6001 4439 c-104 -84 -127 -109 -100 -109 14 0 229 179 229 191 0 19
-21 6 -129 -82z"/>
<path d="M7570 4521 c0 -3 11 -38 25 -78 41 -119 47 -240 42 -929 -4 -673 -6
-705 -56 -803 l-21 -41 239 0 239 0 -25 61 c-46 113 -48 145 -48 859 0 724 3
775 50 879 14 29 25 54 25 55 0 0 -106 1 -235 1 -129 0 -235 -2 -235 -4z"/>
<path d="M8305 4506 c106 -35 174 -73 230 -131 76 -78 98 -130 103 -248 4 -94
3 -100 -28 -165 -65 -132 -218 -245 -438 -322 l-107 -38 70 -6 c39 -4 106 -12
150 -18 225 -31 388 -127 453 -266 24 -50 27 -69 27 -162 0 -92 -3 -112 -26
-160 -65 -137 -215 -242 -432 -301 l-72 -20 130 5 c288 11 483 74 608 198 100
98 145 250 119 400 -44 254 -260 422 -572 446 l-85 7 100 21 c129 28 200 55
276 106 114 76 165 179 157 314 -15 235 -233 365 -608 364 l-125 -1 70 -23z"/>
<path d="M9650 4525 c0 -3 20 -34 44 -68 24 -34 62 -107 84 -162 63 -156 294
-862 290 -887 l-3 -23 -284 -3 -284 -2 7 102 c3 57 15 146 25 198 10 52 18 96
17 97 -1 2 -39 -95 -84 -215 -208 -557 -276 -726 -314 -792 -12 -19 -29 -49
-39 -66 l-19 -31 173 5 c94 2 202 0 240 -5 l67 -10 0 46 c0 54 -22 210 -50
366 -10 61 -20 140 -20 178 l0 67 295 0 295 0 15 -23 c21 -32 70 -179 106
-315 30 -117 37 -210 19 -271 -5 -19 -8 -36 -6 -38 2 -2 60 1 129 6 77 6 173
6 244 1 65 -5 118 -8 120 -7 1 1 -12 23 -29 47 -73 106 -109 205 -384 1045
-108 330 -205 616 -215 635 -9 19 -30 47 -46 62 -52 50 -96 61 -250 66 -79 2
-143 1 -143 -3z"/>
<path d="M2375 4391 c-3 -6 29 -36 72 -68 99 -74 101 -75 108 -64 3 5 -30 36
-72 69 -96 72 -100 75 -108 63z"/>
<path d="M6038 4334 c-49 -35 -88 -69 -88 -75 0 -17 19 -6 103 56 42 32 77 64
77 71 0 8 -1 14 -2 14 -2 -1 -42 -30 -90 -66z"/>
<path d="M11092 4354 c-5 -27 -119 -184 -169 -236 -68 -69 -174 -142 -251
-174 l-57 -23 80 -3 80 -3 5 -510 c5 -559 4 -544 68 -637 41 -60 104 -91 195
-96 60 -4 75 -1 131 27 36 18 75 46 92 68 46 58 48 64 17 48 -58 -31 -130 -6
-160 53 -17 35 -18 86 -23 767 -3 402 -6 725 -8 719z"/>
<path d="M2380 4251 c0 -13 98 -73 112 -69 7 3 -10 21 -37 41 -49 36 -75 46
-75 28z"/>
<path d="M6058 4225 c-41 -30 -61 -55 -44 -55 16 0 106 65 106 76 0 21 -10 17
-62 -21z"/>
<path d="M2360 4141 c0 -15 72 -53 82 -43 6 6 -5 18 -27 31 -39 23 -55 26 -55
12z"/>
<path d="M6093 4128 c-32 -19 -43 -38 -24 -38 16 0 81 41 81 51 0 14 -22 9
-57 -13z"/>
<path d="M2300 4057 c0 -7 20 -23 45 -35 57 -28 62 -7 5 26 -45 26 -50 27 -50
9z"/>
<path d="M6143 4040 c-29 -17 -44 -40 -28 -40 15 0 85 42 85 50 0 16 -22 12
-57 -10z"/>
<path d="M2227 3983 c-8 -7 89 -63 110 -63 27 0 11 17 -42 43 -62 30 -59 29
-68 20z"/>
<path d="M6201 3954 c-36 -17 -51 -28 -44 -35 11 -11 123 38 123 53 0 13 -22
8 -79 -18z"/>
<path d="M2102 3920 c4 -13 170 -90 195 -90 32 0 6 18 -80 54 -126 53 -120 51
-115 36z"/>
<path d="M6319 3896 c-26 -12 -66 -30 -90 -39 -30 -12 -40 -20 -33 -27 12 -12
204 66 204 82 0 14 -33 7 -81 -16z"/>
<path d="M12022 3906 c26 -7 63 -25 82 -40 121 -92 142 -207 132 -726 -5 -293
-12 -390 -31 -450 -4 -13 23 -15 205 -15 116 0 210 1 210 3 0 2 -7 16 -15 32
-42 80 -47 134 -54 525 l-7 380 -26 52 c-14 28 -43 72 -63 98 -70 85 -266 156
-424 154 l-56 0 47 -13z"/>
<path d="M14903 3905 c-75 -18 -173 -67 -212 -106 -48 -48 -71 -103 -71 -174
0 -136 78 -223 369 -413 248 -162 335 -255 335 -357 0 -58 -35 -128 -81 -166
-22 -17 -24 -20 -8 -16 11 3 36 8 55 12 64 12 163 45 196 65 43 27 103 94 120
136 18 43 18 135 0 177 -34 80 -140 176 -311 282 -212 132 -306 199 -348 249
-58 68 -67 86 -67 141 0 62 19 103 69 148 45 41 40 43 -46 22z"/>
<path d="M15249 3894 c32 -27 95 -147 128 -244 11 -35 34 -70 62 -100 l44 -45
22 90 c12 50 31 112 44 140 l22 49 -23 17 c-39 30 -278 118 -321 119 -5 0 5
-12 22 -26z"/>
<path d="M14045 3859 c-4 -21 -1 -82 5 -135 7 -54 9 -115 6 -136 -4 -21 -4
-38 -1 -38 4 0 90 71 192 158 102 86 194 164 204 172 17 13 -3 15 -191 16
l-209 0 -6 -37z"/>
<path d="M11650 3831 c-47 -20 -112 -52 -146 -71 l-61 -34 33 -47 c19 -25 50
-81 69 -123 l35 -77 30 21 c38 27 77 78 84 110 4 14 10 65 15 113 6 66 14 97
30 118 28 38 16 37 -89 -10z"/>
<path d="M1982 3849 c4 -12 249 -109 278 -109 30 0 -8 20 -120 63 -150 58
-163 62 -158 46z"/>
<path d="M6371 3806 c-74 -29 -137 -58 -139 -64 -6 -18 2 -16 152 41 122 46
158 66 129 74 -4 1 -69 -22 -142 -51z"/>
<path d="M1900 3754 c0 -8 65 -33 199 -75 137 -42 141 -43 141 -30 0 5 -71 32
-157 60 -151 49 -183 57 -183 45z"/>
<path d="M6411 3709 c-104 -34 -150 -54 -143 -61 12 -12 332 87 332 102 0 17
-31 10 -189 -41z"/>
<path d="M1910 3636 c0 -8 51 -27 138 -50 148 -39 162 -41 162 -27 0 5 -19 14
-42 20 -24 6 -91 24 -150 40 -79 22 -108 26 -108 17z"/>
<path d="M6436 3605 c-146 -41 -149 -43 -142 -54 6 -9 67 5 249 56 57 16 76
34 35 32 -13 0 -76 -15 -142 -34z"/>
<path d="M1970 3507 c0 -13 198 -62 209 -52 11 12 -19 24 -107 44 -111 25
-102 24 -102 8z"/>
<path d="M6422 3496 c-51 -13 -95 -26 -99 -30 -16 -16 12 -16 88 -1 102 21
132 32 124 45 -8 12 -2 13 -113 -14z"/>
<path d="M12062 3480 c-34 -16 -106 -46 -160 -66 -162 -60 -304 -139 -375
-209 -74 -71 -102 -124 -118 -220 -30 -178 77 -301 272 -313 121 -7 238 35
348 126 50 42 149 152 136 152 -2 0 -28 -17 -56 -39 -62 -47 -106 -61 -194
-61 -83 0 -118 19 -146 78 -17 34 -20 56 -17 105 10 131 80 237 232 351 76 58
154 125 146 126 -3 0 -33 -13 -68 -30z"/>
<path d="M13893 3397 c-28 -23 -81 -66 -117 -95 -36 -30 -66 -59 -65 -65 0 -7
13 -31 27 -55 83 -131 129 -204 167 -262 65 -99 95 -165 95 -207 l0 -38 280 0
279 0 -32 24 c-18 13 -73 65 -122 115 -84 84 -115 125 -265 345 -30 44 -80
115 -110 158 -30 44 -62 88 -70 100 l-15 22 -52 -42z"/>
<path d="M2030 3391 c0 -13 18 -18 86 -26 45 -6 56 -5 48 5 -21 22 -134 40
-134 21z"/>
<path d="M6387 3380 c-39 -7 -54 -16 -45 -26 10 -10 121 11 126 24 4 13 -20
14 -81 2z"/>
<path d="M2052 3279 c5 -16 86 -30 94 -17 9 13 4 15 -50 23 -39 6 -48 5 -44
-6z"/>
<path d="M6397 3280 c-21 -3 -37 -9 -37 -15 1 -12 80 -9 92 3 13 13 -11 19
-55 12z"/>
<path d="M2040 3176 c0 -13 11 -16 52 -16 61 0 55 15 -9 26 -36 5 -43 4 -43
-10z"/>
<path d="M6373 3174 c-31 -13 -9 -25 40 -22 28 2 52 8 52 13 0 11 -72 17 -92
9z"/>
<path d="M2007 3084 c-17 -18 -3 -24 58 -24 37 0 65 4 65 10 0 6 -13 10 -29
10 -16 0 -41 3 -57 6 -16 3 -32 2 -37 -2z"/>
<path d="M6377 3073 c-18 -18 -1 -24 60 -21 42 2 68 8 71 16 3 9 -14 12 -60
12 -36 0 -68 -3 -71 -7z"/>
<path d="M14682 3038 c-6 -24 -29 -88 -51 -143 -22 -55 -37 -103 -33 -106 20
-20 146 -62 247 -84 155 -34 154 -34 107 23 -21 26 -64 97 -95 157 -57 110
-122 195 -150 195 -9 0 -19 -16 -25 -42z"/>
<path d="M2018 2982 c-54 -1 -98 -7 -98 -12 0 -13 207 -13 214 -1 9 14 -12 16
-116 13z"/>
<path d="M6370 2971 c0 -16 30 -21 126 -21 77 0 94 3 94 15 0 12 -19 15 -110
15 -60 0 -110 -4 -110 -9z"/>
<path d="M1898 2873 c-48 -3 -68 -8 -68 -17 0 -10 12 -13 43 -10 23 2 90 6
150 10 59 3 107 10 107 15 0 9 -86 9 -232 2z"/>
<path d="M6370 2871 c0 -10 54 -16 214 -27 80 -5 98 -4 94 7 -7 21 -308 40
-308 20z"/>
<path d="M1936 2764 c-71 -7 -134 -18 -140 -24 -14 -14 44 -13 194 5 69 8 131
15 138 15 6 0 12 5 12 10 0 12 -38 11 -204 -6z"/>
<path d="M6360 2761 c0 -9 33 -14 218 -32 115 -11 145 -9 128 8 -8 8 -224 31
-298 32 -27 1 -48 -3 -48 -8z"/>
<path d="M1973 2661 c-109 -17 -133 -24 -120 -37 8 -9 289 36 302 47 13 13
-54 9 -182 -10z"/>
<path d="M6346 2671 c-8 -13 3 -15 166 -41 152 -24 138 -23 138 -7 0 10 -36
19 -127 31 -71 10 -138 20 -149 23 -12 2 -25 0 -28 -6z"/>
<path d="M2060 2568 c-97 -20 -138 -38 -84 -37 50 1 188 35 192 47 4 14 10 15
-108 -10z"/>
<path d="M6330 2571 c0 -5 33 -16 72 -25 113 -26 148 -30 148 -18 0 13 -12 17
-119 36 -97 19 -101 19 -101 7z"/>
<path d="M2125 2483 c-55 -16 -80 -33 -49 -33 34 1 115 25 115 35 1 15 -12 15
-66 -2z"/>
<path d="M6310 2477 c0 -12 77 -37 116 -37 32 0 11 18 -33 29 -27 7 -56 14
-65 17 -11 3 -18 0 -18 -9z"/>
<path d="M2163 2387 c-50 -19 -53 -30 -4 -23 49 7 61 13 61 27 0 12 -17 10
-57 -4z"/>
<path d="M6280 2381 c0 -10 54 -31 81 -31 35 0 19 18 -25 29 -54 13 -56 13
-56 2z"/>
<path d="M2181 2284 c-50 -22 -25 -38 27 -17 43 16 56 34 25 32 -10 0 -33 -7
-52 -15z"/>
<path d="M6250 2281 c0 -5 20 -16 45 -24 54 -19 72 -3 21 18 -40 17 -66 19
-66 6z"/>
<path d="M2213 2185 c-29 -13 -53 -29 -53 -34 0 -14 -2 -15 62 12 51 20 72 38
51 44 -4 1 -32 -9 -60 -22z"/>
<path d="M6210 2191 c0 -9 95 -51 116 -51 30 0 12 18 -37 39 -55 22 -79 26
-79 12z"/>
<path d="M7822 1918 c4 -276 8 -300 66 -361 38 -41 73 -56 140 -63 79 -9 157
14 199 58 60 62 63 81 63 363 l0 255 -45 0 -45 0 0 -245 c0 -203 -3 -251 -15
-276 -48 -92 -202 -92 -250 0 -12 25 -15 73 -15 276 l0 245 -51 0 -51 0 4
-252z"/>
<path d="M9710 1835 l0 -335 45 0 45 0 0 70 c0 69 1 72 40 113 47 50 40 55
127 -90 l55 -93 50 0 50 0 -23 38 c-12 20 -50 82 -84 137 -34 55 -65 105 -69
112 -4 7 24 46 69 95 41 46 75 86 75 91 0 4 -22 7 -48 7 l-48 0 -94 -115 -95
-116 -3 211 -2 210 -45 0 -45 0 0 -335z"/>
<path d="M10414 2143 c4 -15 53 -167 108 -336 l102 -308 45 3 44 3 94 285 c51
157 100 306 108 333 l14 47 -48 0 -48 0 -36 -112 c-19 -62 -54 -176 -77 -253
-24 -77 -46 -144 -50 -148 -7 -8 -20 31 -117 348 l-49 160 -48 3 -48 3 6 -28z"/>
<path d="M11290 1835 l0 -335 139 0 c157 0 206 12 258 62 56 54 68 103 68 273
0 172 -13 224 -71 274 -52 46 -118 61 -266 61 l-128 0 0 -335z m300 227 c59
-29 70 -65 70 -232 0 -126 -3 -149 -20 -177 -34 -56 -63 -68 -164 -68 l-91 0
-3 248 -2 247 87 0 c64 0 98 -5 123 -18z"/>
<path d="M12410 1893 c0 -160 4 -294 10 -315 15 -52 51 -78 111 -78 l49 0 0
40 c0 38 -2 40 -30 40 -24 0 -33 6 -40 26 -6 14 -10 144 -10 295 l0 269 -45 0
-45 0 0 -277z"/>
<path d="M12690 2125 l0 -45 45 0 45 0 0 45 0 45 -45 0 -45 0 0 -45z"/>
<path d="M2220 2075 c-52 -23 -93 -47 -90 -51 6 -11 4 -11 108 33 45 20 85 39
87 44 14 21 -18 13 -105 -26z"/>
<path d="M6170 2101 c0 -10 174 -91 195 -91 34 0 10 18 -77 58 -93 42 -118 49
-118 33z"/>
<path d="M2223 1962 c-122 -61 -153 -82 -121 -82 12 0 247 117 261 130 5 4 5
10 0 13 -4 2 -68 -25 -140 -61z"/>
<path d="M6130 2010 c0 -10 251 -140 270 -140 29 0 -2 21 -119 83 -128 67
-151 76 -151 57z"/>
<path d="M8760 1957 c-24 -13 -45 -27 -47 -33 -2 -5 10 -20 27 -32 28 -21 32
-22 59 -7 78 40 171 5 174 -65 l2 -35 -106 -5 c-118 -6 -147 -18 -175 -72 -25
-49 -15 -130 21 -168 49 -52 150 -66 218 -31 32 16 39 17 44 5 3 -9 20 -14 45
-14 l39 0 -3 189 c-3 210 -6 220 -78 269 -47 32 -159 32 -220 -1z m218 -303
c4 -70 -16 -87 -103 -88 -76 -1 -108 21 -108 75 0 54 31 70 127 67 l81 -3 3
-51z"/>
<path d="M9271 1963 c-47 -23 -71 -67 -71 -130 0 -44 5 -58 28 -84 26 -29 35
-32 129 -43 111 -13 133 -24 133 -66 0 -45 -32 -65 -109 -65 -54 0 -74 5 -113
28 l-47 27 -20 -29 c-12 -16 -21 -34 -21 -39 0 -6 26 -23 58 -39 49 -24 69
-28 142 -28 101 0 153 21 182 75 21 40 23 104 5 139 -23 46 -59 63 -158 73
-127 13 -157 41 -104 93 31 32 109 34 175 4 l45 -20 22 28 c13 15 23 32 23 36
0 4 -24 19 -52 32 -66 31 -192 35 -247 8z"/>
<path d="M11988 1960 c-60 -32 -91 -96 -96 -199 -5 -106 9 -161 54 -211 58
-64 171 -77 263 -30 54 27 58 37 26 70 l-27 28 -32 -19 c-37 -23 -106 -25
-145 -5 -28 15 -51 53 -51 86 0 19 8 20 150 20 l150 0 0 42 c0 102 -53 204
-118 229 -41 16 -134 10 -174 -11z m154 -71 c21 -11 48 -66 48 -99 0 -19 -6
-20 -106 -20 l-107 0 6 38 c12 72 96 115 159 81z"/>
<path d="M12690 1740 l0 -240 45 0 45 0 0 240 0 240 -45 0 -45 0 0 -240z"/>
<path d="M12884 1963 c3 -10 44 -117 89 -238 l84 -220 35 -3 c40 -3 29 -25
138 268 32 85 63 167 69 183 l11 27 -49 0 -48 0 -53 -157 c-29 -87 -56 -164
-60 -172 -8 -15 -16 4 -83 199 l-42 125 -48 3 c-43 3 -48 1 -43 -15z"/>
<path d="M13495 1968 c-32 -17 -76 -61 -91 -90 -21 -41 -29 -163 -14 -233 22
-105 109 -165 222 -152 48 6 99 27 131 55 16 14 15 17 -15 43 -31 25 -34 26
-51 11 -10 -9 -42 -18 -77 -20 -57 -4 -61 -3 -95 31 -22 22 -35 45 -35 61 l0
26 151 0 152 0 -5 74 c-6 87 -38 152 -92 185 -37 24 -145 29 -181 9z m155 -98
c28 -30 44 -79 31 -93 -4 -4 -52 -6 -107 -5 l-99 3 2 35 c4 82 116 121 173 60z"/>
<path d="M13910 1741 l0 -241 45 0 45 0 0 169 c0 154 2 170 20 194 27 34 79
44 121 23 18 -9 33 -15 34 -14 1 2 14 19 29 40 l27 36 -23 16 c-46 32 -151 15
-189 -30 -13 -16 -14 -15 -19 12 -5 26 -9 29 -48 32 l-42 3 0 -240z"/>
<path d="M2253 1857 c-78 -45 -143 -88 -143 -95 0 -17 -10 -22 163 77 135 77
168 102 135 100 -7 0 -77 -37 -155 -82z"/>
<path d="M6086 1932 c-3 -5 0 -14 7 -19 25 -20 277 -163 287 -163 29 0 -3 25
-117 91 -71 40 -138 79 -150 86 -12 8 -24 10 -27 5z"/>
<path d="M2343 1786 c-122 -77 -158 -106 -133 -106 24 0 262 159 255 170 -3 5
-7 10 -8 9 -1 0 -53 -33 -114 -73z"/>
<path d="M6032 1839 c6 -17 249 -170 260 -163 14 9 7 14 -125 98 -116 75 -142
87 -135 65z"/>
<path d="M2430 1719 c-82 -58 -104 -79 -81 -79 20 0 171 111 171 126 0 8 -1
14 -2 14 -2 -1 -41 -28 -88 -61z"/>
<path d="M5980 1758 c0 -7 35 -37 77 -67 84 -58 103 -68 103 -53 0 9 -162 132
-174 132 -3 0 -6 -6 -6 -12z"/>
<path d="M2511 1652 c-25 -21 -40 -41 -35 -44 10 -7 104 59 104 73 0 19 -27 8
-69 -29z"/>
<path d="M5916 1682 c-6 -10 85 -82 103 -82 22 0 10 16 -38 53 -51 39 -57 42
-65 29z"/>
<path d="M2592 1587 c-18 -18 -29 -36 -26 -40 9 -8 85 54 78 64 -9 15 -19 10
-52 -24z"/>
<path d="M5860 1603 c0 -13 53 -63 67 -63 23 0 14 18 -20 44 -35 26 -47 31
-47 19z"/>
<path d="M2660 1505 c-22 -23 -29 -35 -19 -35 15 0 69 49 69 63 0 15 -18 5
-50 -28z"/>
<path d="M5780 1531 c0 -15 72 -71 83 -64 11 7 -52 73 -70 73 -7 0 -13 -4 -13
-9z"/>
<path d="M2726 1431 c-21 -22 -37 -44 -35 -49 4 -11 36 14 78 61 40 44 1 33
-43 -12z"/>
<path d="M5710 1462 c0 -4 22 -29 49 -56 61 -60 78 -44 20 19 -38 41 -69 58
-69 37z"/>
<path d="M2769 1328 c-46 -52 -68 -83 -59 -86 7 -3 20 5 29 16 9 11 40 47 69
80 29 33 48 63 43 66 -5 4 -42 -31 -82 -76z"/>
<path d="M5647 1385 c16 -28 134 -155 144 -155 17 0 7 16 -60 95 -35 41 -70
75 -78 75 -9 0 -11 -5 -6 -15z"/>
<path d="M2820 1228 c-80 -101 -107 -146 -81 -136 11 4 191 230 191 241 0 23
-29 -5 -110 -105z"/>
<path d="M5570 1329 c0 -14 181 -239 192 -239 19 0 3 27 -83 135 -86 108 -109
130 -109 104z"/>
<path d="M2892 1150 c-56 -77 -102 -143 -102 -145 0 -3 6 -5 13 -5 10 0 60 63
181 232 18 25 25 43 19 49 -6 6 -47 -41 -111 -131z"/>
<path d="M5493 1267 c3 -9 49 -74 102 -146 87 -118 115 -148 115 -123 0 15
-195 275 -209 280 -10 3 -12 0 -8 -11z"/>
<path d="M2998 1111 c-83 -126 -96 -151 -80 -151 11 0 172 241 172 258 0 28
-19 6 -92 -107z"/>
<path d="M5410 1209 c0 -19 154 -248 168 -249 6 0 12 3 12 6 0 4 -37 62 -81
130 -75 114 -99 142 -99 113z"/>
<path d="M3103 1085 c-53 -86 -61 -105 -44 -105 11 0 111 162 111 179 0 26
-18 6 -67 -74z"/>
<path d="M5330 1157 c0 -21 94 -179 105 -175 16 5 10 22 -41 107 -45 77 -64
97 -64 68z"/>
<path d="M3216 1074 c-26 -47 -33 -74 -18 -74 7 0 62 102 62 115 0 19 -22 -2
-44 -41z"/>
<path d="M5240 1109 c0 -22 53 -109 67 -109 19 0 17 8 -17 68 -28 49 -50 67
-50 41z"/>
<path d="M3310 1040 c-22 -44 -25 -60 -10 -60 6 0 20 21 30 46 23 53 23 54 10
54 -5 0 -19 -18 -30 -40z"/>
<path d="M5150 1070 c0 -19 40 -90 50 -90 15 0 12 17 -10 60 -19 38 -40 53
-40 30z"/>
<path d="M3407 1005 c-18 -38 -22 -65 -9 -65 10 0 42 65 42 85 0 26 -16 16
-33 -20z"/>
<path d="M5060 1030 c0 -19 32 -90 41 -90 13 0 11 23 -6 64 -14 33 -35 49 -35
26z"/>
<path d="M3491 943 c-14 -36 -18 -60 -12 -66 10 -10 37 44 48 96 10 48 -13 29
-36 -30z"/>
<path d="M4970 986 c0 -7 6 -29 14 -47 7 -19 16 -43 20 -53 4 -13 10 -16 17
-9 6 6 2 29 -12 66 -20 54 -39 74 -39 43z"/>
<path d="M3605 958 c-18 -53 -55 -175 -55 -185 0 -7 4 -13 10 -13 7 0 70 181
70 204 0 11 -21 6 -25 -6z"/>
<path d="M4880 953 c1 -29 45 -172 57 -184 22 -22 19 9 -10 104 -28 89 -48
123 -47 80z"/>
<path d="M4780 940 c0 -29 68 -282 78 -292 22 -22 18 14 -18 146 -34 124 -60
187 -60 146z"/>
<path d="M3666 798 c-40 -157 -41 -161 -25 -156 10 3 78 245 79 281 0 9 -4 17
-8 17 -5 0 -25 -64 -46 -142z"/>
<path d="M4680 913 c1 -22 69 -325 74 -330 19 -20 16 24 -13 165 -35 166 -37
172 -52 172 -5 0 -9 -3 -9 -7z"/>
<path d="M3785 833 c-9 -43 -25 -116 -35 -163 -12 -51 -15 -89 -10 -94 12 -12
14 -6 50 163 33 157 34 171 21 171 -5 0 -17 -35 -26 -77z"/>
<path d="M3895 878 c-15 -70 -45 -271 -40 -276 13 -13 23 19 39 128 10 63 20
127 23 143 7 33 -14 38 -22 5z"/>
<path d="M4590 874 c0 -42 40 -268 49 -277 18 -18 17 13 -5 148 -13 77 -23
143 -23 148 -1 4 -5 7 -11 7 -5 0 -10 -12 -10 -26z"/>
<path d="M3987 853 c-15 -91 -20 -183 -10 -183 12 0 19 38 29 148 4 46 3 72
-3 72 -6 0 -13 -17 -16 -37z"/>
<path d="M4490 853 c0 -43 18 -175 25 -181 20 -20 18 63 -5 216 0 1 -4 2 -10
2 -5 0 -10 -17 -10 -37z"/>
<path d="M4097 873 c-10 -16 -12 -118 -2 -123 12 -6 25 111 15 123 -4 5 -10 5
-13 0z"/>
<path d="M4390 827 c0 -60 7 -87 22 -87 14 0 5 133 -9 138 -9 3 -13 -12 -13
-51z"/>
<path d="M4190 820 c0 -27 5 -50 10 -50 6 0 10 23 10 50 0 28 -4 50 -10 50 -5
0 -10 -22 -10 -50z"/>
<path d="M4297 863 c-9 -8 -9 -56 -1 -77 12 -32 24 -15 24 34 0 46 -7 60 -23
43z"/>
</g>
</svg>
